<svg width="32" height="32" viewBox="0 0 32 32" fill="none" xmlns="http://www.w3.org/2000/svg">
<g opacity="0.9">
<path d="M29.9619 0H2.03809C0.912483 0 0 0.902193 0 2.01511V29.6241C0 30.737 0.912483 31.6392 2.03809 31.6392H29.9619C31.0875 31.6392 32 30.737 32 29.6241V2.01511C32 0.902193 31.0875 0 29.9619 0Z" fill="url(#paint0_linear_331_104)"/>
<path d="M4.78955 18.928H24.1106C24.9328 18.928 25.7212 19.2509 26.3026 19.8257C26.8839 20.4005 27.2105 21.1801 27.2105 21.993C27.2105 22.8058 26.8839 23.5854 26.3026 24.1602C25.7212 24.735 24.9328 25.0579 24.1106 25.0579H4.78955V18.928Z" fill="#6783BB"/>
<path d="M7.88948 8.16919H27.2085V14.2971H7.88948C7.06839 14.2971 6.28084 13.975 5.69966 13.4016C5.11849 12.8281 4.79117 12.05 4.78955 11.2382V11.2382C4.78902 10.8354 4.8688 10.4364 5.02435 10.064C5.1799 9.69172 5.40815 9.35336 5.69606 9.06832C5.98397 8.78329 6.32588 8.55716 6.70225 8.40288C7.07862 8.2486 7.48205 8.16919 7.88948 8.16919V8.16919Z" fill="#EE7168"/>
</g>
<defs>
<linearGradient id="paint0_linear_331_104" x1="16" y1="0" x2="16" y2="31.6392" gradientUnits="userSpaceOnUse">
<stop stop-color="#9AB2DD" stop-opacity="0.41"/>
<stop offset="1" stop-color="#9AB2DD" stop-opacity="0"/>
</linearGradient>
</defs>
</svg>
