<svg width="68" height="68" viewBox="0 0 68 68" fill="none" xmlns="http://www.w3.org/2000/svg">
<g opacity="0.9" filter="url(#filter0_dd_187_828)">
<path d="M47.9619 18H20.0381C18.9125 18 18 18.9022 18 20.0151V47.6241C18 48.737 18.9125 49.6392 20.0381 49.6392H47.9619C49.0875 49.6392 50 48.737 50 47.6241V20.0151C50 18.9022 49.0875 18 47.9619 18Z" fill="url(#paint0_linear_187_828)"/>
<path d="M22.7891 36.928H42.1101C42.9323 36.928 43.7208 37.2509 44.3021 37.8257C44.8835 38.4005 45.2101 39.1801 45.2101 39.993C45.2101 40.8058 44.8835 41.5854 44.3021 42.1602C43.7208 42.735 42.9323 43.0579 42.1101 43.0579H22.7891V36.928Z" fill="#6783BB"/>
<path d="M25.889 26.1692H45.208V32.2971H25.889C25.0679 32.2971 24.2803 31.975 23.6992 31.4016C23.118 30.8281 22.7907 30.05 22.7891 29.2382C22.7885 28.8354 22.8683 28.4364 23.0239 28.064C23.1794 27.6917 23.4077 27.3534 23.6956 27.0683C23.9835 26.7833 24.3254 26.5572 24.7018 26.4029C25.0781 26.2486 25.4816 26.1692 25.889 26.1692Z" fill="#EE7168"/>
</g>
<defs>
<filter id="filter0_dd_187_828" x="0" y="0" width="68" height="67.6392" filterUnits="userSpaceOnUse" color-interpolation-filters="sRGB">
<feFlood flood-opacity="0" result="BackgroundImageFix"/>
<feColorMatrix in="SourceAlpha" type="matrix" values="0 0 0 0 0 0 0 0 0 0 0 0 0 0 0 0 0 0 127 0" result="hardAlpha"/>
<feOffset dx="6" dy="6"/>
<feGaussianBlur stdDeviation="6"/>
<feComposite in2="hardAlpha" operator="out"/>
<feColorMatrix type="matrix" values="0 0 0 0 0 0 0 0 0 0 0 0 0 0 0 0 0 0 0.2 0"/>
<feBlend mode="normal" in2="BackgroundImageFix" result="effect1_dropShadow_187_828"/>
<feColorMatrix in="SourceAlpha" type="matrix" values="0 0 0 0 0 0 0 0 0 0 0 0 0 0 0 0 0 0 127 0" result="hardAlpha"/>
<feOffset dx="-6" dy="-6"/>
<feGaussianBlur stdDeviation="6"/>
<feComposite in2="hardAlpha" operator="out"/>
<feColorMatrix type="matrix" values="0 0 0 0 1 0 0 0 0 1 0 0 0 0 1 0 0 0 0.2 0"/>
<feBlend mode="normal" in2="effect1_dropShadow_187_828" result="effect2_dropShadow_187_828"/>
<feBlend mode="normal" in="SourceGraphic" in2="effect2_dropShadow_187_828" result="shape"/>
</filter>
<linearGradient id="paint0_linear_187_828" x1="34" y1="18" x2="34" y2="49.6392" gradientUnits="userSpaceOnUse">
<stop stop-color="#9AB2DD" stop-opacity="0.41"/>
<stop offset="1" stop-color="#9AB2DD" stop-opacity="0"/>
</linearGradient>
</defs>
</svg>
